<?xml version="1.0" standalone="no"?>
<!DOCTYPE svg PUBLIC "-//W3C//DTD SVG 20010904//EN"
 "http://www.w3.org/TR/2001/REC-SVG-20010904/DTD/svg10.dtd">
<svg version="1.0" xmlns="http://www.w3.org/2000/svg"
 width="512.000000pt" height="512.000000pt" viewBox="0 0 512.000000 512.000000"
 preserveAspectRatio="xMidYMid meet">

<g transform="translate(0.000000,512.000000) scale(0.100000,-0.100000)"
fill="#000000" stroke="none">
<path d="M245 5111 c-90 -22 -172 -90 -215 -176 l-25 -50 -3 -1965 c-1 -1081
0 -1976 3 -1990 7 -30 876 -904 914 -920 18 -7 470 -9 1461 -8 l1435 3 57 28
c62 30 115 83 150 149 l23 43 3 743 2 742 -105 0 -105 0 0 -705 c0 -783 3
-752 -65 -781 -29 -12 -238 -14 -1370 -14 l-1335 0 0 381 c0 424 -1 433 -65
463 -28 14 -88 16 -414 16 l-381 0 0 1871 c0 1683 2 1874 16 1904 31 66 22 65
623 65 l541 0 0 105 0 105 -557 -1 c-307 -1 -571 -4 -588 -8z m605 -4501 c0
-132 -1 -240 -3 -240 -1 0 -110 108 -242 240 l-240 240 243 0 242 0 0 -240z"/>
<path d="M1725 5106 c-65 -20 -98 -42 -142 -89 -51 -55 -67 -86 -82 -155 -15
-74 -16 -2609 0 -2684 21 -99 91 -187 184 -230 49 -22 59 -23 408 -26 l357 -3
0 -270 c0 -298 5 -325 59 -353 35 -19 64 -20 94 -5 12 6 162 150 332 320 l310
309 820 2 820 3 63 34 c70 38 100 69 140 145 l27 51 0 1365 0 1365 -34 63
c-37 69 -79 109 -151 144 l-45 23 -1560 2 c-1240 1 -1568 -1 -1600 -11z m3120
-212 c69 -33 65 58 65 -1374 0 -1156 -2 -1295 -16 -1325 -32 -68 8 -65 -910
-65 l-828 0 -243 -242 -243 -242 0 192 c0 207 -7 245 -51 276 -21 14 -69 16
-417 16 -421 0 -441 2 -476 51 -15 21 -16 139 -16 1340 l0 1316 21 27 c12 15
31 32 43 36 11 5 700 9 1529 9 1354 1 1512 -1 1542 -15z"/>
<path d="M3011 4675 c-352 -79 -620 -320 -724 -650 -128 -408 31 -863 381
-1090 170 -110 328 -157 527 -158 201 0 369 48 532 155 l76 50 301 -301 301
-301 75 75 75 75 -302 303 -301 302 35 50 c55 78 120 222 143 315 123 507
-165 1006 -667 1156 -74 22 -111 27 -238 30 -106 3 -169 -1 -214 -11z m337
-211 c275 -57 501 -270 573 -541 30 -111 30 -270 0 -378 -62 -221 -195 -382
-396 -480 -110 -53 -205 -75 -325 -75 -120 0 -215 22 -325 75 -234 114 -384
324 -415 584 -26 213 44 428 192 586 185 198 440 282 696 229z"/>
<path d="M3200 4161 l0 -108 49 -6 c132 -16 249 -134 267 -269 l7 -48 103 0
104 0 0 38 c0 21 -7 64 -15 95 -57 219 -238 374 -467 401 l-48 6 0 -109z"/>
<path d="M630 4672 c-28 -11 -68 -40 -105 -77 -83 -83 -95 -121 -95 -297 l0
-138 105 0 105 0 0 126 0 126 34 34 34 34 126 0 126 0 0 105 0 105 -142 -1
c-108 0 -154 -5 -188 -17z"/>
<path d="M430 3840 l0 -110 105 0 105 0 0 110 0 110 -105 0 -105 0 0 -110z"/>
<path d="M1280 535 l0 -105 105 0 105 0 0 105 0 105 -105 0 -105 0 0 -105z"/>
<path d="M1710 535 l0 -105 960 0 960 0 0 105 0 105 -960 0 -960 0 0 -105z"/>
</g>
</svg>
