<?xml version="1.0" standalone="no"?>
<!DOCTYPE svg PUBLIC "-//W3C//DTD SVG 20010904//EN"
 "http://www.w3.org/TR/2001/REC-SVG-20010904/DTD/svg10.dtd">
<svg version="1.0" xmlns="http://www.w3.org/2000/svg"
 width="512.000000pt" height="512.000000pt" viewBox="0 0 512.000000 512.000000"
 preserveAspectRatio="xMidYMid meet">

<g transform="translate(0.000000,512.000000) scale(0.100000,-0.100000)"
fill="#000000" stroke="none">
<path d="M1400 5044 c-167 -45 -290 -190 -311 -366 -11 -95 -11 -691 0 -786
12 -103 64 -206 135 -269 l54 -47 -45 -45 c-26 -26 -61 -78 -82 -121 l-36 -75
-3 -566 -3 -566 -40 -18 c-45 -21 -80 -58 -110 -117 -15 -29 -21 -67 -26 -151
-11 -210 24 -313 124 -372 l52 -30 3 -565 3 -565 36 -75 c59 -122 155 -202
284 -236 40 -11 259 -14 1125 -14 688 0 1091 4 1119 11 70 16 146 58 200 110
l49 49 168 -82 167 -83 162 -3 c149 -4 165 -2 203 17 28 14 49 35 62 61 20 39
20 55 20 1720 0 1665 0 1681 -20 1720 -13 26 -34 47 -62 61 -38 19 -54 21
-203 17 l-162 -3 -167 -83 -167 -82 -44 43 -43 43 54 47 c76 67 123 166 136
284 5 49 8 248 6 448 -4 344 -5 362 -27 417 -48 122 -135 214 -248 259 l-58
24 -1125 2 c-967 2 -1133 0 -1180 -13z m2282 -144 c59 -17 130 -71 163 -124
l30 -49 3 -430 3 -431 -26 -52 c-28 -57 -63 -92 -129 -127 -38 -20 -58 -22
-284 -27 -241 -5 -244 -5 -263 -29 -26 -32 -24 -67 6 -96 24 -25 24 -25 234
-25 186 0 216 -2 264 -20 48 -18 107 -64 96 -74 -2 -2 -50 -27 -106 -55 l-103
-51 -995 0 c-978 0 -996 0 -1035 -20 -26 -13 -47 -34 -60 -60 -18 -36 -20 -58
-20 -288 0 -236 1 -249 20 -270 14 -14 33 -22 55 -22 22 0 41 8 55 22 19 21
20 34 20 255 l0 233 950 0 950 0 0 -1300 0 -1300 -950 0 -950 0 0 470 0 470
240 0 240 0 -24 -37 c-39 -59 -57 -122 -57 -199 0 -139 71 -253 199 -316 59
-29 75 -33 147 -32 58 0 97 7 140 24 56 21 85 47 403 364 401 398 407 407 407
556 0 149 -6 158 -407 556 -318 317 -347 343 -403 364 -43 17 -82 24 -140 24
-72 1 -88 -3 -147 -32 -128 -63 -199 -177 -199 -316 0 -77 18 -140 57 -199
l24 -37 -240 0 -240 0 0 88 c0 104 -16 132 -75 132 -59 0 -75 -28 -75 -132 l0
-88 -100 0 -100 0 0 530 c0 504 1 532 20 582 25 68 90 132 158 158 50 19 79
20 763 20 l710 0 24 25 c32 31 32 69 0 100 l-24 25 -718 0 c-458 0 -731 4
-755 10 -59 17 -130 71 -163 124 l-30 49 0 442 0 442 30 49 c32 51 104 107
159 123 45 13 2201 14 2248 1z m878 -3040 l0 -1650 -100 0 -100 0 0 325 0 326
-25 24 c-31 32 -69 32 -100 0 l-25 -24 0 -301 c0 -165 -2 -300 -5 -300 -3 0
-127 61 -275 135 l-270 135 0 1330 0 1330 270 135 c148 74 272 135 275 135 3
0 5 -518 5 -1150 l0 -1151 25 -24 c31 -32 69 -32 100 0 l25 24 0 1176 0 1175
100 0 100 0 0 -1650z m-2136 788 c34 -10 93 -63 364 -332 178 -177 332 -335
343 -352 26 -42 34 -109 19 -164 -11 -40 -47 -80 -333 -368 -177 -178 -338
-332 -359 -343 -142 -73 -299 19 -299 176 0 55 17 99 57 147 54 66 52 148 -6
203 l-31 30 -513 5 c-542 5 -526 4 -563 50 -17 21 -17 299 0 320 37 46 21 45
563 50 l513 5 31 30 c58 55 60 137 6 203 -84 99 -75 236 18 307 58 44 116 54
190 33z m-964 -1633 c0 -467 1 -487 20 -525 13 -26 34 -47 60 -60 39 -20 57
-20 1035 -20 l995 0 103 -51 c56 -28 104 -53 106 -55 11 -10 -48 -56 -96 -74
-53 -20 -76 -20 -1123 -20 -1041 0 -1071 1 -1122 20 -68 26 -133 90 -158 158
-19 50 -20 78 -20 582 l0 530 100 0 100 0 0 -485z"/>
<path d="M1537 4696 c-10 -8 -22 -29 -27 -47 -13 -44 -13 -684 0 -728 16 -57
28 -60 211 -61 153 0 167 2 187 20 14 14 22 33 22 55 0 22 -8 41 -22 55 -19
18 -35 20 -135 20 l-113 0 0 100 0 100 100 0 c94 0 103 2 125 25 14 13 25 36
25 50 0 14 -11 37 -25 50 -22 23 -31 25 -125 25 l-100 0 0 100 0 100 113 0
c100 0 116 2 135 20 14 14 22 33 22 55 0 22 -8 41 -22 55 -20 18 -34 20 -187
20 -124 -1 -171 -4 -184 -14z"/>
<path d="M2162 4690 c-13 -12 -22 -33 -22 -50 0 -17 35 -99 81 -193 l81 -162
-81 -163 c-47 -94 -81 -174 -81 -191 0 -56 68 -91 111 -58 9 7 42 63 73 125
31 61 58 112 61 112 3 0 30 -51 61 -112 31 -62 64 -118 73 -125 43 -33 111 2
111 58 0 17 -34 97 -81 191 l-81 163 81 162 c46 94 81 176 81 193 0 55 -68 90
-111 57 -9 -7 -42 -63 -73 -125 -31 -61 -58 -112 -61 -112 -3 0 -30 51 -61
112 -31 62 -64 118 -73 125 -24 19 -65 15 -89 -7z"/>
<path d="M2867 4696 c-10 -8 -22 -29 -27 -47 -13 -44 -13 -684 0 -728 11 -39
35 -60 70 -60 35 0 59 21 70 60 6 19 10 182 10 364 0 182 -4 345 -10 364 -11
39 -35 60 -70 60 -14 0 -33 -6 -43 -13z"/>
<path d="M3212 4690 c-30 -28 -30 -82 0 -110 17 -16 35 -20 85 -20 l63 0 0
-325 0 -326 25 -24 c13 -14 36 -25 50 -25 14 0 37 11 50 25 l25 24 0 326 0
325 63 0 c77 0 107 21 107 75 0 22 -8 41 -22 55 -20 19 -34 20 -223 20 -189 0
-203 -1 -223 -20z"/>
<path d="M263 2210 c-56 -12 -92 -32 -129 -72 -65 -68 -69 -85 -69 -278 0
-198 7 -223 83 -292 60 -54 97 -63 257 -63 133 1 143 2 193 28 56 29 102 83
124 145 17 50 17 314 0 364 -22 62 -68 116 -124 144 -46 23 -66 27 -172 30
-67 2 -140 -1 -163 -6z m236 -146 c17 -4 42 -18 56 -32 24 -24 25 -28 25 -172
0 -144 -1 -148 -25 -172 -30 -30 -63 -38 -159 -38 -91 0 -140 14 -166 47 -18
23 -20 40 -20 163 0 124 2 140 21 164 11 14 35 30 52 35 37 11 171 14 216 5z"/>
</g>
</svg>
