<?xml version="1.0" standalone="no"?>
<!DOCTYPE svg PUBLIC "-//W3C//DTD SVG 20010904//EN"
 "http://www.w3.org/TR/2001/REC-SVG-20010904/DTD/svg10.dtd">
<svg version="1.0" xmlns="http://www.w3.org/2000/svg"
 width="512.000000pt" height="512.000000pt" viewBox="0 0 512.000000 512.000000"
 preserveAspectRatio="xMidYMid meet">

<g transform="translate(0.000000,512.000000) scale(0.100000,-0.100000)"
fill="#FFFFFF" stroke="none">
<path d="M687 5105 c-94 -50 -285 -238 -375 -368 -113 -163 -196 -375 -229
-582 -19 -121 -13 -382 12 -492 75 -337 274 -646 543 -843 l72 -53 0 -304 0
-305 29 -29 c26 -26 36 -29 90 -29 l61 0 0 -1024 0 -1024 31 -26 31 -27 520 3
520 3 24 28 24 28 0 1020 0 1019 50 0 c65 0 105 21 119 61 7 21 11 137 11 323
l1 291 70 50 c94 66 262 241 331 345 351 531 308 1205 -108 1695 -97 114 -274
255 -320 255 -12 0 -36 -12 -53 -26 l-31 -26 -2 -566 -3 -567 -642 -3 -643 -2
0 564 0 565 -22 25 c-29 33 -74 41 -111 21z m-19 -1326 c13 -10 38 -21 55 -24
18 -3 364 -5 769 -3 l738 3 27 28 28 27 5 512 5 511 65 -70 c147 -155 248
-355 297 -586 24 -112 24 -352 0 -463 -35 -166 -93 -305 -182 -439 -236 -355
-641 -561 -1065 -541 -317 14 -589 136 -814 362 -226 228 -346 521 -346 849 0
318 112 603 327 835 l58 63 5 -522 5 -523 23 -19z m334 -1150 c147 -54 264
-73 458 -73 199 0 306 18 478 79 53 19 98 35 100 35 1 0 2 -88 2 -195 l0 -195
-575 0 -575 0 0 196 c0 183 1 196 18 189 9 -4 52 -20 94 -36z m858 -1489 l0
-960 -395 0 -395 0 0 960 0 960 395 0 395 0 0 -960z"/>
<path d="M875 3576 c-31 -13 -55 -51 -55 -86 0 -10 12 -32 26 -49 l26 -31 589
0 590 0 24 25 c33 32 33 84 1 122 l-24 28 -574 2 c-460 2 -579 0 -603 -11z"/>
<path d="M1399 1864 l-24 -26 0 -700 0 -700 28 -24 c38 -32 90 -32 122 1 l25
24 0 701 0 701 -25 24 c-34 35 -93 34 -126 -1z"/>
<path d="M3848 5105 c-29 -16 -42 -49 -73 -195 l-16 -75 -46 -19 c-26 -11 -76
-39 -112 -64 l-66 -44 -118 36 c-163 49 -157 52 -271 -145 -120 -206 -120
-203 0 -318 l90 -86 -1 -131 -1 -131 -80 -74 c-84 -77 -103 -102 -104 -133 0
-26 157 -303 191 -338 15 -16 38 -28 51 -28 13 0 72 16 132 34 l108 34 58 -39
c31 -21 82 -50 113 -64 l56 -26 15 -68 c9 -38 21 -92 27 -120 19 -88 28 -91
256 -91 237 0 226 -7 263 162 l25 112 75 39 c41 22 92 52 113 67 38 28 40 28
85 14 192 -59 189 -59 224 -42 27 12 50 45 121 170 114 202 114 197 -3 308
l-89 85 0 137 c0 107 3 139 14 145 7 5 48 41 89 81 101 97 101 99 -9 291 -46
81 -93 155 -104 165 -28 25 -64 23 -182 -14 l-107 -32 -62 42 c-34 23 -85 52
-113 65 l-52 23 -24 112 c-17 77 -31 121 -47 139 l-22 26 -189 2 c-152 2 -193
0 -215 -12z m313 -267 c25 -110 49 -151 96 -163 49 -12 146 -66 202 -111 65
-54 86 -55 211 -15 65 21 92 26 98 17 5 -6 26 -39 46 -74 l36 -63 -86 -82 -86
-81 8 -90 c10 -113 10 -112 0 -219 l-8 -89 86 -81 86 -82 -41 -70 c-22 -38
-42 -72 -44 -73 -2 -2 -49 10 -103 27 -55 17 -109 31 -119 31 -11 0 -46 -21
-79 -46 -55 -44 -204 -124 -229 -124 -25 0 -48 -43 -66 -122 -11 -46 -21 -93
-24 -105 -5 -22 -10 -23 -93 -23 l-88 0 -18 88 c-27 129 -37 147 -104 172 -71
26 -132 62 -196 112 -27 21 -60 41 -73 44 -14 4 -64 -6 -125 -26 l-102 -32
-15 21 c-9 12 -29 45 -45 74 l-28 53 87 86 87 86 -8 53 c-9 56 -11 182 -3 282
l4 59 -84 77 c-46 42 -82 81 -80 87 2 5 21 39 42 76 l38 66 77 -25 c42 -13 97
-27 122 -29 42 -5 50 -1 127 54 46 33 115 73 154 88 41 16 77 38 86 51 8 12
24 62 34 110 11 49 21 94 24 101 3 8 30 12 89 12 l85 0 22 -102z"/>
<path d="M3955 4486 c-168 -42 -294 -177 -326 -349 -34 -184 69 -376 248 -459
128 -60 288 -48 411 32 71 45 113 95 154 180 61 125 47 300 -32 414 -104 152
-285 224 -455 182z m171 -181 c105 -31 174 -126 174 -240 0 -37 -8 -76 -19
-100 -23 -51 -102 -121 -150 -135 -140 -39 -278 34 -317 168 -39 133 38 271
176 313 40 12 83 10 136 -6z"/>
<path d="M3471 2741 c-20 -15 -30 -45 -61 -182 l-37 -163 -99 -50 c-55 -28
-127 -70 -160 -93 -33 -24 -64 -43 -70 -43 -6 0 -75 20 -153 45 -78 25 -153
45 -166 45 -41 0 -71 -39 -185 -237 -82 -143 -110 -200 -110 -226 0 -32 12
-46 123 -150 l122 -115 -1 -192 -1 -193 -44 -40 c-194 -178 -199 -183 -199
-220 0 -27 27 -82 111 -229 61 -106 118 -201 126 -210 30 -34 64 -30 228 21
157 50 159 50 180 32 36 -35 193 -128 245 -147 57 -21 51 -6 95 -214 23 -107
31 -129 56 -152 l29 -28 240 0 240 0 29 27 c26 25 33 46 61 173 17 80 33 152
36 161 2 8 21 21 42 28 54 19 169 84 230 129 l53 40 107 -34 c207 -66 216 -68
248 -53 41 20 263 398 264 450 0 45 -3 48 -134 167 l-109 99 -1 192 -1 193
123 115 c111 105 122 118 122 150 0 27 -27 83 -112 230 -113 196 -142 233
-184 233 -12 0 -87 -20 -165 -45 -78 -25 -148 -45 -154 -45 -6 0 -36 18 -66
41 -30 22 -100 63 -156 91 -57 29 -105 59 -108 67 -2 9 -18 78 -35 155 -33
150 -41 170 -70 186 -11 6 -115 10 -262 10 -221 0 -245 -2 -267 -19z m446
-316 c21 -95 40 -156 51 -166 9 -9 40 -24 67 -34 78 -27 193 -91 262 -146 99
-77 88 -76 256 -24 82 25 152 43 156 41 4 -3 38 -57 74 -120 l67 -115 -68 -63
c-37 -35 -91 -86 -121 -115 l-53 -52 8 -58 c12 -75 11 -300 0 -380 l-9 -63 39
-38 c22 -20 76 -71 122 -113 l83 -75 -67 -115 c-36 -63 -69 -117 -73 -121 -4
-5 -70 12 -146 37 -77 24 -150 45 -161 45 -12 0 -53 -24 -91 -54 -90 -70 -160
-111 -253 -148 -41 -17 -83 -38 -93 -47 -12 -12 -29 -66 -48 -152 -16 -74 -32
-142 -35 -151 -5 -16 -21 -18 -144 -18 -137 0 -140 1 -145 23 -3 12 -18 80
-35 151 -16 70 -36 136 -45 146 -9 10 -53 33 -98 50 -76 30 -188 98 -281 170
-21 16 -48 30 -60 30 -12 0 -84 -21 -161 -45 -76 -25 -142 -42 -146 -37 -4 4
-36 58 -73 121 l-66 115 78 70 c42 39 97 90 121 113 l44 43 -9 62 c-12 81 -12
295 0 376 l9 63 -64 62 c-35 34 -90 86 -121 115 l-57 52 65 113 c36 61 69 116
74 120 4 5 74 -12 155 -37 91 -29 156 -44 169 -40 11 4 50 30 86 59 75 61 168
114 255 146 33 12 68 28 77 36 10 9 28 62 43 132 15 64 31 133 36 154 l10 38
141 -3 141 -3 34 -150z"/>
<path d="M3660 1960 c-134 -21 -236 -74 -335 -174 -112 -113 -165 -244 -165
-404 0 -225 124 -426 321 -520 99 -47 162 -62 266 -62 256 0 492 184 558 436
19 75 19 213 0 289 -40 158 -164 311 -306 378 -113 53 -233 73 -339 57z m210
-197 c102 -34 187 -109 238 -213 24 -50 27 -66 27 -165 0 -103 -2 -114 -31
-175 -39 -82 -110 -152 -194 -193 -60 -30 -72 -32 -170 -32 -93 0 -111 3 -163
27 -80 38 -160 117 -200 197 -30 61 -32 72 -32 171 0 97 2 110 32 173 88 186
296 274 493 210z"/>
</g>
</svg>
