<?xml version="1.0" standalone="no"?>
<!DOCTYPE svg PUBLIC "-//W3C//DTD SVG 20010904//EN"
 "http://www.w3.org/TR/2001/REC-SVG-20010904/DTD/svg10.dtd">
<svg version="1.0" xmlns="http://www.w3.org/2000/svg"
 width="512.000000pt" height="512.000000pt" viewBox="0 0 512.000000 512.000000"
 preserveAspectRatio="xMidYMid meet">

<g transform="translate(0.000000,512.000000) scale(0.100000,-0.100000)"
fill="#000000" stroke="none">
<path d="M1674 5110 c-55 -22 -54 -15 -54 -536 l0 -481 -147 -6 c-164 -6 -279
-30 -414 -86 -357 -148 -608 -485 -626 -836 -3 -75 2 -141 20 -263 l24 -162
-20 -43 c-28 -61 -34 -182 -12 -249 35 -107 104 -175 209 -206 l57 -17 28 -82
c15 -45 41 -103 56 -130 43 -73 127 -175 178 -213 l46 -35 1 -77 c0 -76 -1
-78 -24 -78 -50 0 -285 -53 -397 -90 -340 -112 -529 -265 -585 -475 -11 -38
-14 -159 -14 -517 l0 -467 24 -28 24 -28 1344 -3 c1018 -2 1350 1 1372 10 44
18 56 60 56 203 l0 125 1123 0 c1188 1 1140 -1 1165 47 9 16 12 598 12 2347
l0 2325 -24 28 -24 28 -1689 2 c-938 1 -1698 -2 -1709 -7z m3276 -2380 l0
-2220 -1065 0 -1065 0 0 228 c0 126 -5 255 -11 288 -49 268 -343 474 -808 568
l-116 23 -3 65 -3 64 52 34 c129 83 262 246 313 381 23 61 26 64 68 75 104 27
170 82 217 184 35 74 35 190 2 267 l-23 52 27 273 c38 377 31 455 -57 621 -81
153 -269 276 -422 277 -33 0 -47 8 -97 54 -32 30 -83 66 -114 81 l-55 27 0
433 c0 237 3 435 7 438 3 4 714 7 1580 7 l1573 0 0 -2220z m-3220 1174 c45
-13 67 -29 127 -90 l73 -74 64 0 c36 0 93 -9 129 -20 124 -38 221 -159 253
-312 14 -68 14 -89 -7 -303 -12 -126 -24 -232 -25 -234 -2 -2 -15 -1 -29 3
-20 5 -25 13 -25 36 0 40 -18 76 -44 88 -11 5 -60 22 -108 37 -102 32 -215 99
-311 184 -82 74 -102 76 -183 22 -151 -99 -611 -231 -808 -231 -107 0 -136
-18 -136 -85 0 -30 -5 -45 -16 -49 -22 -8 -54 -8 -54 2 0 4 -7 50 -15 102 -25
162 -15 268 38 400 109 268 382 477 691 529 93 16 327 13 386 -5z m38 -863
c71 -60 186 -127 268 -157 l74 -27 0 -267 c0 -216 -3 -277 -16 -321 -52 -174
-168 -305 -349 -394 -111 -55 -187 -75 -285 -75 -248 0 -476 159 -561 393 -21
58 -23 80 -27 349 l-3 287 23 5 c13 2 60 9 105 16 178 24 524 129 663 201 30
15 56 28 58 29 2 0 24 -18 50 -39z m-1068 -486 c0 -154 -3 -162 -46 -127 -72
57 -71 194 1 250 15 12 32 22 36 22 5 0 9 -65 9 -145z m1653 96 c31 -38 41
-89 27 -142 -11 -41 -58 -99 -79 -99 -7 0 -11 48 -11 145 0 140 1 145 19 136
10 -6 30 -24 44 -40z m-1068 -1009 c81 -22 260 -21 341 1 34 9 65 17 68 17 3
0 6 -32 6 -71 0 -65 -2 -73 -29 -100 l-29 -29 -192 0 -192 0 -28 30 c-28 29
-40 73 -40 144 0 32 3 37 18 31 9 -3 44 -14 77 -23z m-224 -218 c7 -15 36 -46
62 -70 71 -64 115 -74 327 -74 231 0 261 8 348 97 l64 65 61 -12 c364 -69 618
-205 690 -368 l25 -57 3 -415 4 -415 -170 0 -170 0 -3 213 -2 212 -85 0 -85 0
0 -215 0 -215 -722 2 -723 3 -3 213 -2 212 -85 0 -85 0 0 -215 0 -215 -170 0
-171 0 3 417 3 418 28 57 c86 175 385 314 838 387 3 1 12 -11 20 -25z"/>
<path d="M1964 4767 c-3 -8 -4 -47 -2 -88 l3 -74 168 -3 167 -2 0 90 0 90
-165 0 c-129 0 -167 -3 -171 -13z"/>
<path d="M2474 4767 c-3 -8 -4 -47 -2 -88 l3 -74 1150 0 1150 0 0 85 0 85
-1148 3 c-955 2 -1148 0 -1153 -11z"/>
<path d="M1962 4348 l3 -83 980 0 980 0 3 83 3 82 -986 0 -986 0 3 -82z"/>
<path d="M4100 4345 l0 -85 340 0 340 0 0 85 0 85 -340 0 -340 0 0 -85z"/>
<path d="M4009 3981 l-29 -29 0 -382 0 -381 25 -24 24 -25 384 0 c457 0 433
-6 431 107 -4 194 -129 434 -297 571 -114 92 -263 159 -407 182 -92 14 -98 13
-131 -19z m228 -182 c192 -64 358 -238 416 -436 l16 -53 -260 0 -259 0 0 255
c0 203 3 255 13 255 7 0 41 -9 74 -21z"/>
<path d="M2730 3835 l0 -85 510 0 510 0 0 85 0 85 -510 0 -510 0 0 -85z"/>
<path d="M3447 3580 c-73 -13 -185 -49 -242 -77 -304 -154 -491 -475 -472
-808 28 -475 427 -831 900 -802 131 8 198 27 322 87 171 83 293 202 379 370
61 117 86 212 93 346 10 188 19 184 -396 184 l-310 0 -3 330 c-3 328 -3 330
-26 352 -20 20 -34 23 -110 25 -48 1 -109 -2 -135 -7z m103 -489 c0 -317 1
-329 21 -355 l20 -26 335 0 334 0 0 -22 c-1 -49 -31 -164 -60 -226 -71 -151
-176 -259 -325 -333 -107 -53 -204 -72 -325 -66 -294 16 -534 204 -622 487
-19 61 -23 97 -22 195 0 104 4 131 28 200 37 107 76 174 150 253 117 125 295
214 444 221 l22 1 0 -329z"/>
<path d="M2650 1535 l0 -85 1065 0 1065 0 0 85 0 85 -1065 0 -1065 0 0 -85z"/>
<path d="M2990 1195 l0 -85 680 0 680 0 0 85 0 85 -680 0 -680 0 0 -85z"/>
<path d="M4520 1195 l0 -85 130 0 130 0 0 85 0 85 -130 0 -130 0 0 -85z"/>
<path d="M2990 850 l0 -90 425 0 425 0 0 90 0 90 -425 0 -425 0 0 -90z"/>
<path d="M4012 853 l3 -88 380 0 380 0 0 85 0 85 -383 3 -383 2 3 -87z"/>
</g>
</svg>
